<?xml version="1.0" encoding="utf-8"?>
<!-- Generator: Adobe Illustrator 25.2.1, SVG Export Plug-In . SVG Version: 6.00 Build 0)  -->
<svg version="1.1" id="Ebene_1" xmlns="http://www.w3.org/2000/svg" xmlns:xlink="http://www.w3.org/1999/xlink" x="0px" y="0px"
	 viewBox="0 0 145.1 32.7" style="enable-background:new 0 0 145.1 32.7;" xml:space="preserve">
<style type="text/css">
	.st0{fill:#26262D;}
</style>
<g>
	<path class="st0" d="M30.9,16.4c0,2.2-0.4,4.3-1.1,6.2c-0.7,1.9-1.7,3.6-3.1,5.1c-1.3,1.4-3,2.6-4.8,3.4c-1.9,0.8-4,1.2-6.3,1.2
		c-2,0-3.9-0.3-5.7-1.1C8.2,30.4,6.5,29.4,5,28c-1.4-1.3-2.6-3-3.4-5c-0.9-2-1.3-4.2-1.3-6.6c0-2.2,0.3-4.3,1.1-6.2
		c0.7-1.9,1.8-3.5,3.1-5c1.3-1.4,2.9-2.6,4.8-3.4s4-1.3,6.3-1.3c1.9,0,3.8,0.4,5.7,1.1c1.8,0.7,3.5,1.7,4.9,3.1s2.6,3.1,3.4,5
		C30.5,11.7,30.9,13.9,30.9,16.4z M26.7,16.7c0-2.3-0.2-4.4-0.7-6.3s-1.3-3.6-2.2-5.1c-1-1.4-2.2-2.6-3.5-3.4
		c-1.4-0.8-3-1.3-4.7-1.3c-2.6,0-4.7,0.7-6.3,2.1C7.6,4.1,6.4,5.9,5.7,8.3C5,10.6,4.6,13.2,4.6,16c0,2.3,0.2,4.4,0.7,6.3
		c0.5,2,1.3,3.7,2.2,5.1c1,1.5,2.2,2.6,3.6,3.5c1.4,0.8,3,1.3,4.7,1.3c2.6,0,4.7-0.8,6.3-2.1c1.6-1.3,2.7-3.3,3.5-5.6
		C26.3,22.2,26.7,19.5,26.7,16.7z"/>
	<path class="st0" d="M41.4,31.6c0.2,0.1,0.5,0.1,0.7,0.2h-7.9c0.2,0,0.4-0.1,0.6-0.2c0.6-0.3,0.9-0.6,1.2-1.1
		c0.2-0.4,0.2-1,0.2-1.7V4.1c0-0.7,0-1.3-0.2-1.7c-0.2-0.5-0.6-0.8-1.2-1.1c-0.2-0.1-0.4-0.1-0.6-0.2h5.7v27.4
		c0,0.8,0.1,1.4,0.3,1.9C40.3,30.9,40.8,31.4,41.4,31.6z M49.3,14.1c0.1-0.3,0.2-0.7,0.4-1v6.2c-0.1-0.3-0.2-0.7-0.3-0.9
		c-0.3-0.7-0.7-1.3-1.3-1.6c-0.6-0.3-1.3-0.5-2.3-0.5h-1.6h1.6c1,0,1.7-0.2,2.3-0.5C48.6,15.4,48.9,14.8,49.3,14.1z M53.1,4.7
		c-0.5-0.9-1.1-1.6-1.8-2.1s-1.6-0.8-2.7-1.1c-1-0.2-2.2-0.4-3.6-0.4h8.6l0.2,5.3C53.6,5.7,53.4,5.2,53.1,4.7z"/>
	<path class="st0" d="M57.3,1H63v30.8h-5.7c0.2-0.1,0.4-0.1,0.6-0.2c0.6-0.3,1-0.6,1.2-1.1s0.2-1,0.2-1.7V4.1c0-0.7,0-1.3-0.2-1.7
		c-0.2-0.5-0.6-0.8-1.2-1.1C57.7,1.2,57.5,1.1,57.3,1z M69.8,16.1h-1.9H69.8c1-0.1,1.7-0.3,2.3-0.6c0.6-0.3,1.1-0.8,1.3-1.6
		c0.1-0.3,0.2-0.6,0.3-1V19c-0.1-0.3-0.2-0.6-0.3-0.8c-0.3-0.7-0.7-1.3-1.3-1.6S70.7,16.1,69.8,16.1z M78.8,26l-0.3,5.9H68.3h0.9
		c1.7-0.1,3.1-0.2,4.2-0.5c1.2-0.2,2.1-0.7,2.9-1.2c0.7-0.6,1.4-1.3,1.9-2.3C78.4,27.3,78.7,26.6,78.8,26z M72.3,1.5
		c-1-0.2-2.3-0.4-3.8-0.5h9l0.3,5.4c-0.2-0.7-0.5-1.2-0.7-1.7c-0.5-0.9-1.1-1.6-1.9-2.1S73.4,1.7,72.3,1.5z"/>
	<path class="st0" d="M82.9,1.1h7.9c-0.2,0-0.5,0.1-0.7,0.2c-0.6,0.3-1,0.7-1.2,1.3c-0.2,0.5-0.3,1.1-0.3,1.9V32h-5.7
		c0.2-0.1,0.4-0.1,0.6-0.2c0.6-0.3,1-0.7,1.2-1.1c0.2-0.5,0.2-1,0.2-1.7V4.1c0-0.7,0-1.3-0.2-1.7c-0.2-0.5-0.6-0.8-1.2-1.1
		C83.4,1.2,83.2,1.1,82.9,1.1z M102.9,25.5l-0.3,6.3h-8.8c1.3-0.1,2.5-0.3,3.5-0.5c1.2-0.2,2.1-0.7,2.9-1.3c0.7-0.6,1.4-1.4,1.9-2.5
		C102.4,27.1,102.7,26.3,102.9,25.5z"/>
	<path class="st0" d="M113.4,31.7c0.2,0,0.4,0.1,0.6,0.2h-7.7c0.2,0,0.4-0.1,0.6-0.2c0.6-0.3,1-0.6,1.2-1.1c0.1-0.4,0.2-1,0.2-1.7
		V4.1c0-0.7,0-1.3-0.2-1.7c-0.2-0.5-0.6-0.8-1.2-1.1c-0.2-0.1-0.4-0.1-0.6-0.2h7.7c-0.2,0-0.4,0.1-0.6,0.2c-0.6,0.3-1,0.6-1.2,1.1
		c-0.1,0.4-0.2,1-0.2,1.7v24.7c0,0.7,0,1.3,0.2,1.7C112.5,31.1,112.8,31.5,113.4,31.7z"/>
	<path class="st0" d="M120.4,29.3c0,1.2,0.4,1.8,0.8,2.1c0.3,0.2,0.6,0.4,1.1,0.5h-5.5c0.3-0.1,0.6-0.3,0.8-0.4
		c0.6-0.3,1.1-0.9,1.5-1.8c0.4-0.8,0.9-2,1.4-3.4l6.6-18l-6,17.8C120.7,27.4,120.4,28.5,120.4,29.3z M127.5,20.5l1.2-1.1l1.1,1.1
		l-1.1,1.1L127.5,20.5z M137.3,29.6c0-0.7-0.1-1.5-0.6-2.7l-2.3-6.5l0,0L128.7,4l1.1-2.9h1.5l9.4,26.2c0.4,1.2,0.8,2,1.2,2.7
		s0.8,1.3,1.4,1.5c0.2,0.1,0.5,0.2,0.7,0.3h-8.6c0.3-0.1,0.6-0.3,0.8-0.4C137,31.1,137.3,30.4,137.3,29.6z"/>
</g>
</svg>
